# MagicaVoxel @ Ephtracy

# group
o 

# material
mtllib Coin.mtl
usemtl palette

# normals
vn -1 0 0
vn 1 0 0
vn 0 0 1
vn 0 0 -1
vn 0 -1 0
vn 0 1 0

# texcoords
vt 0.00585938 0.5
vt 0.00976562 0.5
vt 0.0136719 0.5

# verts
v -0.5 0.3 0
v -0.5 0.3 -0.1
v -0.5 0.5 0
v -0.5 0.5 -0.1
v -0.5 0.7 0
v -0.5 0.7 -0.1
v -0.4 0.2 0
v -0.4 0.2 -0.1
v -0.4 0.3 0
v -0.4 0.3 -0.1
v -0.4 0.7 0
v -0.4 0.7 -0.1
v -0.4 0.8 0
v -0.4 0.8 -0.1
v -0.3 0.1 0
v -0.3 0.1 -0.1
v -0.3 0.2 0
v -0.3 0.2 -0.1
v -0.3 0.8 0
v -0.3 0.8 -0.1
v -0.3 0.9 0
v -0.3 0.9 -0.1
v -0.2 0 0
v -0.2 0 -0.1
v -0.2 0.1 0
v -0.2 0.1 -0.1
v -0.2 0.9 0
v -0.2 0.9 -0.1
v -0.2 1 0
v -0.2 1 -0.1
v 0.2 0 0
v 0.2 0 -0.1
v 0.2 0.1 0
v 0.2 0.1 -0.1
v 0.2 0.9 0
v 0.2 0.9 -0.1
v 0.2 1 0
v 0.2 1 -0.1
v 0.3 0.1 0
v 0.3 0.1 -0.1
v 0.3 0.2 0
v 0.3 0.2 -0.1
v 0.3 0.8 0
v 0.3 0.8 -0.1
v 0.3 0.9 0
v 0.3 0.9 -0.1
v 0.4 0.2 0
v 0.4 0.2 -0.1
v 0.4 0.3 0
v 0.4 0.3 -0.1
v 0.4 0.7 0
v 0.4 0.7 -0.1
v 0.4 0.8 0
v 0.4 0.8 -0.1
v 0.5 0.3 0
v 0.5 0.3 -0.1
v 0.5 0.7 0
v 0.5 0.7 -0.1
v -0.5 0.3 0
v -0.5 0.5 0
v -0.5 0.7 0
v -0.4 0.2 0
v -0.4 0.3 0
v -0.4 0.6 0
v -0.4 0.7 0
v -0.4 0.8 0
v -0.3 0.1 0
v -0.3 0.2 0
v -0.3 0.3 0
v -0.3 0.5 0
v -0.3 0.6 0
v -0.3 0.8 0
v -0.3 0.9 0
v -0.2 0 0
v -0.2 0.1 0
v -0.2 0.3 0
v -0.2 0.7 0
v -0.2 0.9 0
v -0.2 1 0
v -0.1 0 0
v -0.1 0.2 0
v -0.1 0.3 0
v -0.1 0.7 0
v -0.1 0.8 0
v 0 0 0
v 0 0.1 0
v 0 0.4 0
v 0 0.5 0
v 0 0.9 0
v 0 1 0
v 0.1 0 0
v 0.1 0.1 0
v 0.1 0.2 0
v 0.1 0.3 0
v 0.1 0.4 0
v 0.1 0.7 0
v 0.1 0.8 0
v 0.2 0 0
v 0.2 0.1 0
v 0.2 0.2 0
v 0.2 0.3 0
v 0.2 0.5 0
v 0.2 0.6 0
v 0.2 0.9 0
v 0.2 1 0
v 0.3 0.1 0
v 0.3 0.2 0
v 0.3 0.8 0
v 0.3 0.9 0
v 0.4 0.2 0
v 0.4 0.3 0
v 0.4 0.6 0
v 0.4 0.7 0
v 0.4 0.8 0
v 0.5 0.3 0
v 0.5 0.7 0
v -0.5 0.3 -0.1
v -0.5 0.5 -0.1
v -0.5 0.7 -0.1
v -0.4 0.2 -0.1
v -0.4 0.3 -0.1
v -0.4 0.6 -0.1
v -0.4 0.7 -0.1
v -0.4 0.8 -0.1
v -0.3 0.1 -0.1
v -0.3 0.2 -0.1
v -0.3 0.3 -0.1
v -0.3 0.5 -0.1
v -0.3 0.6 -0.1
v -0.3 0.8 -0.1
v -0.3 0.9 -0.1
v -0.2 0 -0.1
v -0.2 0.1 -0.1
v -0.2 0.3 -0.1
v -0.2 0.7 -0.1
v -0.2 0.9 -0.1
v -0.2 1 -0.1
v -0.1 0 -0.1
v -0.1 0.2 -0.1
v -0.1 0.3 -0.1
v -0.1 0.7 -0.1
v -0.1 0.8 -0.1
v 0 0 -0.1
v 0 0.1 -0.1
v 0 0.4 -0.1
v 0 0.5 -0.1
v 0 0.9 -0.1
v 0 1 -0.1
v 0.1 0 -0.1
v 0.1 0.1 -0.1
v 0.1 0.2 -0.1
v 0.1 0.3 -0.1
v 0.1 0.4 -0.1
v 0.1 0.7 -0.1
v 0.1 0.8 -0.1
v 0.2 0 -0.1
v 0.2 0.1 -0.1
v 0.2 0.2 -0.1
v 0.2 0.3 -0.1
v 0.2 0.5 -0.1
v 0.2 0.6 -0.1
v 0.2 0.9 -0.1
v 0.2 1 -0.1
v 0.3 0.1 -0.1
v 0.3 0.2 -0.1
v 0.3 0.8 -0.1
v 0.3 0.9 -0.1
v 0.4 0.2 -0.1
v 0.4 0.3 -0.1
v 0.4 0.6 -0.1
v 0.4 0.7 -0.1
v 0.4 0.8 -0.1
v 0.5 0.3 -0.1
v 0.5 0.7 -0.1
v -0.2 0 0
v -0.1 0 0
v 0 0 0
v 0.1 0 0
v 0.2 0 0
v -0.2 0 -0.1
v -0.1 0 -0.1
v 0 0 -0.1
v 0.1 0 -0.1
v 0.2 0 -0.1
v -0.3 0.1 0
v -0.2 0.1 0
v 0.2 0.1 0
v 0.3 0.1 0
v -0.3 0.1 -0.1
v -0.2 0.1 -0.1
v 0.2 0.1 -0.1
v 0.3 0.1 -0.1
v -0.4 0.2 0
v -0.3 0.2 0
v 0.3 0.2 0
v 0.4 0.2 0
v -0.4 0.2 -0.1
v -0.3 0.2 -0.1
v 0.3 0.2 -0.1
v 0.4 0.2 -0.1
v -0.5 0.3 0
v -0.4 0.3 0
v 0.4 0.3 0
v 0.5 0.3 0
v -0.5 0.3 -0.1
v -0.4 0.3 -0.1
v 0.4 0.3 -0.1
v 0.5 0.3 -0.1
v -0.5 0.7 0
v -0.4 0.7 0
v 0.4 0.7 0
v 0.5 0.7 0
v -0.5 0.7 -0.1
v -0.4 0.7 -0.1
v 0.4 0.7 -0.1
v 0.5 0.7 -0.1
v -0.4 0.8 0
v -0.3 0.8 0
v 0.3 0.8 0
v 0.4 0.8 0
v -0.4 0.8 -0.1
v -0.3 0.8 -0.1
v 0.3 0.8 -0.1
v 0.4 0.8 -0.1
v -0.3 0.9 0
v -0.2 0.9 0
v 0.2 0.9 0
v 0.3 0.9 0
v -0.3 0.9 -0.1
v -0.2 0.9 -0.1
v 0.2 0.9 -0.1
v 0.3 0.9 -0.1
v -0.2 1 0
v 0 1 0
v 0.2 1 0
v -0.2 1 -0.1
v 0 1 -0.1
v 0.2 1 -0.1

# faces
f 3/2/1 2/2/1 1/2/1
f 4/2/1 2/2/1 3/2/1
f 5/3/1 4/3/1 3/3/1
f 6/3/1 4/3/1 5/3/1
f 9/3/1 8/3/1 7/3/1
f 10/3/1 8/3/1 9/3/1
f 13/2/1 12/2/1 11/2/1
f 14/2/1 12/2/1 13/2/1
f 17/2/1 16/2/1 15/2/1
f 18/2/1 16/2/1 17/2/1
f 21/3/1 20/3/1 19/3/1
f 22/3/1 20/3/1 21/3/1
f 25/2/1 24/2/1 23/2/1
f 26/2/1 24/2/1 25/2/1
f 29/2/1 28/2/1 27/2/1
f 30/2/1 28/2/1 29/2/1
f 31/3/2 32/3/2 33/3/2
f 33/3/2 32/3/2 34/3/2
f 35/3/2 36/3/2 37/3/2
f 37/3/2 36/3/2 38/3/2
f 39/2/2 40/2/2 41/2/2
f 41/2/2 40/2/2 42/2/2
f 43/2/2 44/2/2 45/2/2
f 45/2/2 44/2/2 46/2/2
f 47/3/2 48/3/2 49/3/2
f 49/3/2 48/3/2 50/3/2
f 51/2/2 52/2/2 53/2/2
f 53/2/2 52/2/2 54/2/2
f 55/3/2 56/3/2 57/3/2
f 57/3/2 56/3/2 58/3/2
f 63/2/3 60/2/3 59/2/3
f 64/3/3 61/3/3 60/3/3
f 65/3/3 61/3/3 64/3/3
f 68/3/3 63/3/3 62/3/3
f 69/2/3 60/2/3 63/2/3
f 69/3/3 63/3/3 68/3/3
f 70/3/3 64/3/3 60/3/3
f 70/2/3 60/2/3 69/2/3
f 71/2/3 66/2/3 65/2/3
f 71/3/3 64/3/3 70/3/3
f 71/2/3 65/2/3 64/2/3
f 72/2/3 66/2/3 71/2/3
f 75/2/3 68/2/3 67/2/3
f 75/2/3 69/2/3 68/2/3
f 76/3/3 70/3/3 69/3/3
f 76/3/3 73/3/3 72/3/3
f 76/2/3 69/2/3 75/2/3
f 76/3/3 72/3/3 71/3/3
f 76/3/3 71/3/3 70/3/3
f 77/3/3 73/3/3 76/3/3
f 78/3/3 73/3/3 77/3/3
f 80/2/3 75/2/3 74/2/3
f 80/2/3 76/2/3 75/2/3
f 81/2/3 76/2/3 80/2/3
f 82/1/3 77/1/3 76/1/3
f 82/2/3 76/2/3 81/2/3
f 83/3/3 78/3/3 77/3/3
f 83/1/3 77/1/3 82/1/3
f 84/3/3 78/3/3 83/3/3
f 85/3/3 81/3/3 80/3/3
f 86/3/3 81/3/3 85/3/3
f 87/3/3 83/3/3 82/3/3
f 88/3/3 83/3/3 87/3/3
f 89/2/3 79/2/3 78/2/3
f 89/3/3 78/3/3 84/3/3
f 90/2/3 79/2/3 89/2/3
f 91/2/3 86/2/3 85/2/3
f 92/3/3 81/3/3 86/3/3
f 92/2/3 86/2/3 91/2/3
f 93/1/3 82/1/3 81/1/3
f 93/3/3 81/3/3 92/3/3
f 94/3/3 87/3/3 82/3/3
f 94/1/3 82/1/3 93/1/3
f 95/1/3 88/1/3 87/1/3
f 95/3/3 87/3/3 94/3/3
f 96/3/3 83/3/3 88/3/3
f 96/1/3 84/1/3 83/1/3
f 97/3/3 89/3/3 84/3/3
f 97/1/3 84/1/3 96/1/3
f 97/3/3 90/3/3 89/3/3
f 98/3/3 92/3/3 91/3/3
f 98/3/3 94/3/3 93/3/3
f 98/3/3 93/3/3 92/3/3
f 99/3/3 94/3/3 98/3/3
f 100/3/3 94/3/3 99/3/3
f 101/1/3 95/1/3 94/1/3
f 101/3/3 94/3/3 100/3/3
f 102/1/3 88/1/3 95/1/3
f 102/1/3 95/1/3 101/1/3
f 102/3/3 97/3/3 96/3/3
f 102/3/3 96/3/3 88/3/3
f 103/3/3 97/3/3 102/3/3
f 104/3/3 90/3/3 97/3/3
f 104/3/3 97/3/3 103/3/3
f 105/3/3 90/3/3 104/3/3
f 106/2/3 100/2/3 99/2/3
f 107/3/3 101/3/3 100/3/3
f 107/2/3 100/2/3 106/2/3
f 107/3/3 103/3/3 102/3/3
f 107/3/3 102/3/3 101/3/3
f 108/2/3 104/2/3 103/2/3
f 109/2/3 104/2/3 108/2/3
f 110/3/3 103/3/3 107/3/3
f 111/3/3 103/3/3 110/3/3
f 112/2/3 108/2/3 103/2/3
f 112/3/3 103/3/3 111/3/3
f 113/2/3 108/2/3 112/2/3
f 114/2/3 108/2/3 113/2/3
f 115/3/3 112/3/3 111/3/3
f 115/3/3 113/3/3 112/3/3
f 116/3/3 113/3/3 115/3/3
f 117/2/4 118/2/4 121/2/4
f 118/3/4 119/3/4 122/3/4
f 122/3/4 119/3/4 123/3/4
f 120/3/4 121/3/4 126/3/4
f 121/2/4 118/2/4 127/2/4
f 126/3/4 121/3/4 127/3/4
f 118/3/4 122/3/4 128/3/4
f 127/2/4 118/2/4 128/2/4
f 123/2/4 124/2/4 129/2/4
f 128/3/4 122/3/4 129/3/4
f 122/2/4 123/2/4 129/2/4
f 129/2/4 124/2/4 130/2/4
f 125/2/4 126/2/4 133/2/4
f 126/2/4 127/2/4 133/2/4
f 127/3/4 128/3/4 134/3/4
f 130/3/4 131/3/4 134/3/4
f 133/2/4 127/2/4 134/2/4
f 129/3/4 130/3/4 134/3/4
f 128/3/4 129/3/4 134/3/4
f 134/3/4 131/3/4 135/3/4
f 135/3/4 131/3/4 136/3/4
f 132/2/4 133/2/4 138/2/4
f 133/2/4 134/2/4 138/2/4
f 138/2/4 134/2/4 139/2/4
f 134/1/4 135/1/4 140/1/4
f 139/2/4 134/2/4 140/2/4
f 135/3/4 136/3/4 141/3/4
f 140/1/4 135/1/4 141/1/4
f 141/3/4 136/3/4 142/3/4
f 138/3/4 139/3/4 143/3/4
f 143/3/4 139/3/4 144/3/4
f 140/3/4 141/3/4 145/3/4
f 145/3/4 141/3/4 146/3/4
f 136/2/4 137/2/4 147/2/4
f 142/3/4 136/3/4 147/3/4
f 147/2/4 137/2/4 148/2/4
f 143/2/4 144/2/4 149/2/4
f 144/3/4 139/3/4 150/3/4
f 149/2/4 144/2/4 150/2/4
f 139/1/4 140/1/4 151/1/4
f 150/3/4 139/3/4 151/3/4
f 140/3/4 145/3/4 152/3/4
f 151/1/4 140/1/4 152/1/4
f 145/1/4 146/1/4 153/1/4
f 152/3/4 145/3/4 153/3/4
f 146/3/4 141/3/4 154/3/4
f 141/1/4 142/1/4 154/1/4
f 142/3/4 147/3/4 155/3/4
f 154/1/4 142/1/4 155/1/4
f 147/3/4 148/3/4 155/3/4
f 149/3/4 150/3/4 156/3/4
f 151/3/4 152/3/4 156/3/4
f 150/3/4 151/3/4 156/3/4
f 156/3/4 152/3/4 157/3/4
f 157/3/4 152/3/4 158/3/4
f 152/1/4 153/1/4 159/1/4
f 158/3/4 152/3/4 159/3/4
f 153/1/4 146/1/4 160/1/4
f 159/1/4 153/1/4 160/1/4
f 154/3/4 155/3/4 160/3/4
f 146/3/4 154/3/4 160/3/4
f 160/3/4 155/3/4 161/3/4
f 155/3/4 148/3/4 162/3/4
f 161/3/4 155/3/4 162/3/4
f 162/3/4 148/3/4 163/3/4
f 157/2/4 158/2/4 164/2/4
f 158/3/4 159/3/4 165/3/4
f 164/2/4 158/2/4 165/2/4
f 160/3/4 161/3/4 165/3/4
f 159/3/4 160/3/4 165/3/4
f 161/2/4 162/2/4 166/2/4
f 166/2/4 162/2/4 167/2/4
f 165/3/4 161/3/4 168/3/4
f 168/3/4 161/3/4 169/3/4
f 161/2/4 166/2/4 170/2/4
f 169/3/4 161/3/4 170/3/4
f 170/2/4 166/2/4 171/2/4
f 171/2/4 166/2/4 172/2/4
f 169/3/4 170/3/4 173/3/4
f 170/3/4 171/3/4 173/3/4
f 173/3/4 171/3/4 174/3/4
f 180/2/5 176/2/5 175/2/5
f 181/3/5 177/3/5 176/3/5
f 181/2/5 176/2/5 180/2/5
f 182/2/5 178/2/5 177/2/5
f 182/3/5 177/3/5 181/3/5
f 183/3/5 179/3/5 178/3/5
f 183/2/5 178/2/5 182/2/5
f 184/3/5 179/3/5 183/3/5
f 189/2/5 186/2/5 185/2/5
f 190/2/5 186/2/5 189/2/5
f 191/2/5 188/2/5 187/2/5
f 192/2/5 188/2/5 191/2/5
f 197/3/5 194/3/5 193/3/5
f 198/3/5 194/3/5 197/3/5
f 199/3/5 196/3/5 195/3/5
f 200/3/5 196/3/5 199/3/5
f 205/2/5 202/2/5 201/2/5
f 206/2/5 202/2/5 205/2/5
f 207/3/5 204/3/5 203/3/5
f 208/3/5 204/3/5 207/3/5
f 209/3/6 210/3/6 213/3/6
f 213/3/6 210/3/6 214/3/6
f 211/3/6 212/3/6 215/3/6
f 215/3/6 212/3/6 216/3/6
f 217/2/6 218/2/6 221/2/6
f 221/2/6 218/2/6 222/2/6
f 219/2/6 220/2/6 223/2/6
f 223/2/6 220/2/6 224/2/6
f 225/3/6 226/3/6 229/3/6
f 229/3/6 226/3/6 230/3/6
f 227/2/6 228/2/6 231/2/6
f 231/2/6 228/2/6 232/2/6
f 233/2/6 234/2/6 236/2/6
f 234/3/6 235/3/6 237/3/6
f 236/2/6 234/2/6 237/2/6
f 237/3/6 235/3/6 238/3/6
