# MagicaVoxel @ Ephtracy

# group
o 

# material
mtllib rocket.mtl
usemtl palette

# normals
vn -1 0 0
vn 1 0 0
vn 0 0 1
vn 0 0 -1
vn 0 -1 0
vn 0 1 0

# texcoords
vt 0.705078 0.5
vt 0.732422 0.5
vt 0.919922 0.5
vt 0.994141 0.5

# verts
v -0.4 0 0
v -0.4 0 -0.4
v -0.4 0.1 0
v -0.4 0.1 -0.4
v -0.3 0 0.3
v -0.3 0 0
v -0.3 0.1 0.3
v -0.3 0.1 0
v -0.3 0.1 -0.3
v -0.3 0.2 0.3
v -0.3 0.2 -0.3
v -0.2 0 0.4
v -0.2 0 0.3
v -0.2 0 -0.4
v -0.2 0 -0.5
v -0.2 0.1 0.4
v -0.2 0.1 0.3
v -0.2 0.1 -0.4
v -0.2 0.1 -0.5
v -0.2 0.2 0.4
v -0.2 0.2 0.3
v -0.2 0.2 -0.3
v -0.2 0.3 0.3
v -0.2 0.3 -0.3
v -0.1 0 0.5
v -0.1 0 0.4
v -0.1 0.1 0.5
v -0.1 0.1 0.4
v -0.1 0.2 0.5
v -0.1 0.2 0.4
v -0.1 0.2 0.3
v -0.1 0.3 0.4
v -0.1 0.3 0.3
v 0.1 0 0.5
v 0.1 0 0.4
v 0.1 0.1 0.5
v 0.1 0.1 0.4
v 0.1 0.2 0.5
v 0.1 0.2 0.4
v 0.1 0.2 0.3
v 0.1 0.3 0.4
v 0.1 0.3 0.3
v 0.2 0 0.4
v 0.2 0 0.3
v 0.2 0 -0.4
v 0.2 0 -0.5
v 0.2 0.1 0.4
v 0.2 0.1 0.3
v 0.2 0.1 -0.4
v 0.2 0.1 -0.5
v 0.2 0.2 0.4
v 0.2 0.2 0.3
v 0.2 0.2 -0.3
v 0.2 0.3 0.3
v 0.2 0.3 -0.3
v 0.3 0 0.3
v 0.3 0 0
v 0.3 0.1 0.3
v 0.3 0.1 0
v 0.3 0.1 -0.3
v 0.3 0.2 0.3
v 0.3 0.2 -0.3
v 0.4 0 0
v 0.4 0 -0.4
v 0.4 0.1 0
v 0.4 0.1 -0.4
v -0.1 0 0.5
v -0.1 0.1 0.5
v -0.1 0.2 0.5
v 0.1 0 0.5
v 0.1 0.1 0.5
v 0.1 0.2 0.5
v -0.2 0 0.4
v -0.2 0.1 0.4
v -0.2 0.2 0.4
v -0.1 0 0.4
v -0.1 0.1 0.4
v -0.1 0.2 0.4
v -0.1 0.3 0.4
v 0.1 0 0.4
v 0.1 0.1 0.4
v 0.1 0.2 0.4
v 0.1 0.3 0.4
v 0.2 0 0.4
v 0.2 0.1 0.4
v 0.2 0.2 0.4
v -0.3 0 0.3
v -0.3 0.1 0.3
v -0.3 0.2 0.3
v -0.2 0 0.3
v -0.2 0.1 0.3
v -0.2 0.2 0.3
v -0.2 0.3 0.3
v -0.1 0.2 0.3
v -0.1 0.3 0.3
v 0.1 0.2 0.3
v 0.1 0.3 0.3
v 0.2 0 0.3
v 0.2 0.1 0.3
v 0.2 0.2 0.3
v 0.2 0.3 0.3
v 0.3 0 0.3
v 0.3 0.1 0.3
v 0.3 0.2 0.3
v -0.4 0 0
v -0.4 0.1 0
v -0.3 0 0
v -0.3 0.1 0
v 0.3 0 0
v 0.3 0.1 0
v 0.4 0 0
v 0.4 0.1 0
v -0.3 0.1 -0.3
v -0.3 0.2 -0.3
v -0.2 0.2 -0.3
v -0.2 0.3 -0.3
v 0.2 0.2 -0.3
v 0.2 0.3 -0.3
v 0.3 0.1 -0.3
v 0.3 0.2 -0.3
v -0.4 0 -0.4
v -0.4 0.1 -0.4
v -0.2 0 -0.4
v -0.2 0.1 -0.4
v 0.2 0 -0.4
v 0.2 0.1 -0.4
v 0.4 0 -0.4
v 0.4 0.1 -0.4
v -0.2 0 -0.5
v -0.2 0.1 -0.5
v 0.2 0 -0.5
v 0.2 0.1 -0.5
v -0.1 0 0.5
v 0.1 0 0.5
v -0.2 0 0.4
v -0.1 0 0.4
v 0.1 0 0.4
v 0.2 0 0.4
v -0.3 0 0.3
v -0.2 0 0.3
v 0.2 0 0.3
v 0.3 0 0.3
v -0.4 0 0
v -0.3 0 0
v 0.3 0 0
v 0.4 0 0
v -0.4 0 -0.4
v -0.2 0 -0.4
v 0.2 0 -0.4
v 0.4 0 -0.4
v -0.2 0 -0.5
v 0.2 0 -0.5
v -0.4 0.1 0
v -0.3 0.1 0
v 0.3 0.1 0
v 0.4 0.1 0
v -0.3 0.1 -0.3
v 0.3 0.1 -0.3
v -0.4 0.1 -0.4
v -0.2 0.1 -0.4
v 0.2 0.1 -0.4
v 0.4 0.1 -0.4
v -0.2 0.1 -0.5
v 0.2 0.1 -0.5
v -0.1 0.2 0.5
v 0.1 0.2 0.5
v -0.2 0.2 0.4
v -0.1 0.2 0.4
v 0.1 0.2 0.4
v 0.2 0.2 0.4
v -0.3 0.2 0.3
v -0.2 0.2 0.3
v -0.1 0.2 0.3
v 0.1 0.2 0.3
v 0.2 0.2 0.3
v 0.3 0.2 0.3
v -0.3 0.2 -0.3
v -0.2 0.2 -0.3
v 0.2 0.2 -0.3
v 0.3 0.2 -0.3
v -0.1 0.3 0.4
v 0.1 0.3 0.4
v -0.2 0.3 0.3
v -0.1 0.3 0.3
v 0.1 0.3 0.3
v 0.2 0.3 0.3
v -0.2 0.3 -0.3
v 0.2 0.3 -0.3

# faces
f 3/4/1 2/4/1 1/4/1
f 4/4/1 2/4/1 3/4/1
f 7/4/1 6/4/1 5/4/1
f 8/4/1 6/4/1 7/4/1
f 10/3/1 8/3/1 7/3/1
f 10/3/1 9/3/1 8/3/1
f 11/3/1 9/3/1 10/3/1
f 16/4/1 13/4/1 12/4/1
f 17/4/1 13/4/1 16/4/1
f 18/4/1 15/4/1 14/4/1
f 19/4/1 15/4/1 18/4/1
f 20/1/1 17/1/1 16/1/1
f 21/1/1 17/1/1 20/1/1
f 23/3/1 22/3/1 21/3/1
f 24/3/1 22/3/1 23/3/1
f 27/4/1 26/4/1 25/4/1
f 28/4/1 26/4/1 27/4/1
f 29/1/1 28/1/1 27/1/1
f 30/1/1 28/1/1 29/1/1
f 32/3/1 31/3/1 30/3/1
f 33/3/1 31/3/1 32/3/1
f 34/4/2 35/4/2 36/4/2
f 36/4/2 35/4/2 37/4/2
f 36/1/2 37/1/2 38/1/2
f 38/1/2 37/1/2 39/1/2
f 39/3/2 40/3/2 41/3/2
f 41/3/2 40/3/2 42/3/2
f 43/4/2 44/4/2 47/4/2
f 47/4/2 44/4/2 48/4/2
f 45/4/2 46/4/2 49/4/2
f 49/4/2 46/4/2 50/4/2
f 47/1/2 48/1/2 51/1/2
f 51/1/2 48/1/2 52/1/2
f 52/3/2 53/3/2 54/3/2
f 54/3/2 53/3/2 55/3/2
f 56/4/2 57/4/2 58/4/2
f 58/4/2 57/4/2 59/4/2
f 58/3/2 59/3/2 61/3/2
f 59/3/2 60/3/2 61/3/2
f 61/3/2 60/3/2 62/3/2
f 63/4/2 64/4/2 65/4/2
f 65/4/2 64/4/2 66/4/2
f 70/4/3 68/4/3 67/4/3
f 71/1/3 69/1/3 68/1/3
f 71/4/3 68/4/3 70/4/3
f 72/1/3 69/1/3 71/1/3
f 76/4/3 74/4/3 73/4/3
f 77/1/3 75/1/3 74/1/3
f 77/4/3 74/4/3 76/4/3
f 78/1/3 75/1/3 77/1/3
f 82/3/3 79/3/3 78/3/3
f 83/3/3 79/3/3 82/3/3
f 84/4/3 81/4/3 80/4/3
f 85/1/3 82/1/3 81/1/3
f 85/4/3 81/4/3 84/4/3
f 86/1/3 82/1/3 85/1/3
f 90/4/3 88/4/3 87/4/3
f 91/3/3 89/3/3 88/3/3
f 91/4/3 88/4/3 90/4/3
f 92/3/3 89/3/3 91/3/3
f 94/3/3 93/3/3 92/3/3
f 95/3/3 93/3/3 94/3/3
f 100/3/3 97/3/3 96/3/3
f 101/3/3 97/3/3 100/3/3
f 102/4/3 99/4/3 98/4/3
f 103/3/3 100/3/3 99/3/3
f 103/4/3 99/4/3 102/4/3
f 104/3/3 100/3/3 103/3/3
f 107/4/3 106/4/3 105/4/3
f 108/4/3 106/4/3 107/4/3
f 111/4/3 110/4/3 109/4/3
f 112/4/3 110/4/3 111/4/3
f 113/3/4 114/3/4 115/3/4
f 113/3/4 115/3/4 117/3/4
f 115/3/4 116/3/4 117/3/4
f 117/3/4 116/3/4 118/3/4
f 113/3/4 117/3/4 119/3/4
f 119/3/4 117/3/4 120/3/4
f 121/4/4 122/4/4 123/4/4
f 123/4/4 122/4/4 124/4/4
f 125/4/4 126/4/4 127/4/4
f 127/4/4 126/4/4 128/4/4
f 129/4/4 130/4/4 131/4/4
f 131/4/4 130/4/4 132/4/4
f 136/4/5 134/4/5 133/4/5
f 137/4/5 134/4/5 136/4/5
f 140/4/5 136/4/5 135/4/5
f 140/4/5 138/4/5 137/4/5
f 140/4/5 137/4/5 136/4/5
f 141/4/5 138/4/5 140/4/5
f 144/4/5 140/4/5 139/4/5
f 144/4/5 142/4/5 141/4/5
f 144/4/5 141/4/5 140/4/5
f 145/4/5 142/4/5 144/4/5
f 147/4/5 144/4/5 143/4/5
f 147/4/5 146/4/5 145/4/5
f 147/4/5 145/4/5 144/4/5
f 148/4/5 146/4/5 147/4/5
f 149/4/5 146/4/5 148/4/5
f 150/4/5 146/4/5 149/4/5
f 151/4/5 149/4/5 148/4/5
f 152/4/5 149/4/5 151/4/5
f 153/4/6 154/4/6 157/4/6
f 155/4/6 156/4/6 158/4/6
f 153/4/6 157/4/6 159/4/6
f 157/4/6 158/4/6 159/4/6
f 159/4/6 158/4/6 160/4/6
f 160/4/6 158/4/6 161/4/6
f 158/4/6 156/4/6 162/4/6
f 161/4/6 158/4/6 162/4/6
f 160/4/6 161/4/6 163/4/6
f 163/4/6 161/4/6 164/4/6
f 165/1/6 166/1/6 168/1/6
f 168/1/6 166/1/6 169/1/6
f 167/1/6 168/1/6 172/1/6
f 172/1/6 168/1/6 173/1/6
f 169/1/6 170/1/6 174/1/6
f 174/1/6 170/1/6 175/1/6
f 171/3/6 172/3/6 177/3/6
f 177/3/6 172/3/6 178/3/6
f 175/3/6 176/3/6 179/3/6
f 179/3/6 176/3/6 180/3/6
f 181/3/6 182/3/6 184/3/6
f 184/3/6 182/3/6 185/3/6
f 183/3/6 184/3/6 187/3/6
f 185/3/6 186/3/6 187/3/6
f 184/3/6 185/3/6 187/3/6
f 187/3/6 186/3/6 188/3/6
